<mxfile host="Electron" modified="2023-12-01T11:59:03.121Z" agent="Mozilla/5.0 (X11; Linux x86_64) AppleWebKit/537.36 (KHTML, like Gecko) draw.io/22.1.2 Chrome/114.0.5735.289 Electron/25.9.4 Safari/537.36" etag="Wyfr0lsj6BTl7-w98IwH" version="22.1.2" type="device">
  <diagram id="Bx8_0C6tZxzpWAFxTc1c" name="ER">
    <mxGraphModel dx="2249" dy="885" grid="1" gridSize="10" guides="1" tooltips="1" connect="1" arrows="1" fold="1" page="1" pageScale="1" pageWidth="850" pageHeight="1100" math="0" shadow="0">
      <root>
        <mxCell id="0" />
        <mxCell id="1" parent="0" />
        <mxCell id="GhbO_Cz8v0FP8d1JMKL0-1" value="" style="ellipse;whiteSpace=wrap;html=1;aspect=fixed;" vertex="1" parent="1">
          <mxGeometry x="370" y="10" width="80" height="80" as="geometry" />
        </mxCell>
        <mxCell id="GhbO_Cz8v0FP8d1JMKL0-2" value="1, 7" style="ellipse;whiteSpace=wrap;html=1;aspect=fixed;fontSize=18;" vertex="1" parent="1">
          <mxGeometry x="-55" y="150" width="80" height="80" as="geometry" />
        </mxCell>
        <mxCell id="GhbO_Cz8v0FP8d1JMKL0-3" value="2, 7" style="ellipse;whiteSpace=wrap;html=1;aspect=fixed;fontSize=18;" vertex="1" parent="1">
          <mxGeometry x="115" y="150" width="80" height="80" as="geometry" />
        </mxCell>
        <mxCell id="GhbO_Cz8v0FP8d1JMKL0-4" value="3, 3" style="ellipse;whiteSpace=wrap;html=1;aspect=fixed;fontSize=18;" vertex="1" parent="1">
          <mxGeometry x="285" y="150" width="80" height="80" as="geometry" />
        </mxCell>
        <mxCell id="GhbO_Cz8v0FP8d1JMKL0-5" value="4, 7" style="ellipse;whiteSpace=wrap;html=1;aspect=fixed;fontSize=18;" vertex="1" parent="1">
          <mxGeometry x="455" y="150" width="80" height="80" as="geometry" />
        </mxCell>
        <mxCell id="GhbO_Cz8v0FP8d1JMKL0-6" value="5, 11" style="ellipse;whiteSpace=wrap;html=1;aspect=fixed;fontSize=18;" vertex="1" parent="1">
          <mxGeometry x="625" y="150" width="80" height="80" as="geometry" />
        </mxCell>
        <mxCell id="GhbO_Cz8v0FP8d1JMKL0-7" value="6, 7" style="ellipse;whiteSpace=wrap;html=1;aspect=fixed;fontSize=18;" vertex="1" parent="1">
          <mxGeometry x="795" y="150" width="80" height="80" as="geometry" />
        </mxCell>
        <mxCell id="GhbO_Cz8v0FP8d1JMKL0-8" value="" style="endArrow=none;html=1;rounded=0;entryX=0;entryY=0.5;entryDx=0;entryDy=0;exitX=0.5;exitY=0;exitDx=0;exitDy=0;" edge="1" parent="1" source="GhbO_Cz8v0FP8d1JMKL0-2" target="GhbO_Cz8v0FP8d1JMKL0-1">
          <mxGeometry width="50" height="50" relative="1" as="geometry">
            <mxPoint x="-10" y="150" as="sourcePoint" />
            <mxPoint x="450" y="90" as="targetPoint" />
          </mxGeometry>
        </mxCell>
        <mxCell id="GhbO_Cz8v0FP8d1JMKL0-9" value="" style="endArrow=none;html=1;rounded=0;entryX=0;entryY=1;entryDx=0;entryDy=0;exitX=0.5;exitY=0;exitDx=0;exitDy=0;" edge="1" parent="1" source="GhbO_Cz8v0FP8d1JMKL0-3" target="GhbO_Cz8v0FP8d1JMKL0-1">
          <mxGeometry width="50" height="50" relative="1" as="geometry">
            <mxPoint x="400" y="140" as="sourcePoint" />
            <mxPoint x="450" y="90" as="targetPoint" />
          </mxGeometry>
        </mxCell>
        <mxCell id="GhbO_Cz8v0FP8d1JMKL0-10" value="" style="endArrow=none;html=1;rounded=0;entryX=0.3;entryY=0.95;entryDx=0;entryDy=0;entryPerimeter=0;exitX=0.5;exitY=0;exitDx=0;exitDy=0;" edge="1" parent="1" source="GhbO_Cz8v0FP8d1JMKL0-4" target="GhbO_Cz8v0FP8d1JMKL0-1">
          <mxGeometry width="50" height="50" relative="1" as="geometry">
            <mxPoint x="400" y="140" as="sourcePoint" />
            <mxPoint x="450" y="90" as="targetPoint" />
          </mxGeometry>
        </mxCell>
        <mxCell id="GhbO_Cz8v0FP8d1JMKL0-12" value="" style="endArrow=none;html=1;rounded=0;entryX=0.738;entryY=0.938;entryDx=0;entryDy=0;exitX=0.5;exitY=0;exitDx=0;exitDy=0;entryPerimeter=0;" edge="1" parent="1" source="GhbO_Cz8v0FP8d1JMKL0-5" target="GhbO_Cz8v0FP8d1JMKL0-1">
          <mxGeometry width="50" height="50" relative="1" as="geometry">
            <mxPoint x="400" y="140" as="sourcePoint" />
            <mxPoint x="450" y="90" as="targetPoint" />
          </mxGeometry>
        </mxCell>
        <mxCell id="GhbO_Cz8v0FP8d1JMKL0-13" value="" style="endArrow=none;html=1;rounded=0;exitX=0.5;exitY=0;exitDx=0;exitDy=0;entryX=0.95;entryY=0.775;entryDx=0;entryDy=0;entryPerimeter=0;" edge="1" parent="1" source="GhbO_Cz8v0FP8d1JMKL0-6" target="GhbO_Cz8v0FP8d1JMKL0-1">
          <mxGeometry width="50" height="50" relative="1" as="geometry">
            <mxPoint x="400" y="140" as="sourcePoint" />
            <mxPoint x="530" y="50" as="targetPoint" />
          </mxGeometry>
        </mxCell>
        <mxCell id="GhbO_Cz8v0FP8d1JMKL0-14" value="" style="endArrow=none;html=1;rounded=0;entryX=1;entryY=0.5;entryDx=0;entryDy=0;exitX=0.5;exitY=0;exitDx=0;exitDy=0;" edge="1" parent="1" source="GhbO_Cz8v0FP8d1JMKL0-7" target="GhbO_Cz8v0FP8d1JMKL0-1">
          <mxGeometry width="50" height="50" relative="1" as="geometry">
            <mxPoint x="400" y="140" as="sourcePoint" />
            <mxPoint x="450" y="90" as="targetPoint" />
          </mxGeometry>
        </mxCell>
        <mxCell id="GhbO_Cz8v0FP8d1JMKL0-16" value="" style="endArrow=none;html=1;rounded=0;entryX=0.5;entryY=1;entryDx=0;entryDy=0;" edge="1" parent="1" target="GhbO_Cz8v0FP8d1JMKL0-2">
          <mxGeometry width="50" height="50" relative="1" as="geometry">
            <mxPoint x="-15" y="280" as="sourcePoint" />
            <mxPoint x="-15" y="230" as="targetPoint" />
          </mxGeometry>
        </mxCell>
        <mxCell id="GhbO_Cz8v0FP8d1JMKL0-17" value="J3" style="text;html=1;strokeColor=none;fillColor=none;align=center;verticalAlign=middle;whiteSpace=wrap;rounded=0;fontSize=18;" vertex="1" parent="1">
          <mxGeometry x="-45" y="280" width="60" height="30" as="geometry" />
        </mxCell>
        <mxCell id="GhbO_Cz8v0FP8d1JMKL0-20" value="" style="endArrow=none;html=1;rounded=0;entryX=0.5;entryY=1;entryDx=0;entryDy=0;" edge="1" parent="1">
          <mxGeometry width="50" height="50" relative="1" as="geometry">
            <mxPoint x="155" y="280" as="sourcePoint" />
            <mxPoint x="155" y="230" as="targetPoint" />
          </mxGeometry>
        </mxCell>
        <mxCell id="GhbO_Cz8v0FP8d1JMKL0-21" value="J3" style="text;html=1;strokeColor=none;fillColor=none;align=center;verticalAlign=middle;whiteSpace=wrap;rounded=0;fontSize=18;" vertex="1" parent="1">
          <mxGeometry x="125" y="280" width="60" height="30" as="geometry" />
        </mxCell>
        <mxCell id="GhbO_Cz8v0FP8d1JMKL0-24" value="" style="endArrow=none;html=1;rounded=0;entryX=0.5;entryY=1;entryDx=0;entryDy=0;" edge="1" parent="1">
          <mxGeometry width="50" height="50" relative="1" as="geometry">
            <mxPoint x="495" y="260" as="sourcePoint" />
            <mxPoint x="495" y="230" as="targetPoint" />
          </mxGeometry>
        </mxCell>
        <mxCell id="GhbO_Cz8v0FP8d1JMKL0-25" value="J3" style="text;html=1;strokeColor=none;fillColor=none;align=center;verticalAlign=middle;whiteSpace=wrap;rounded=0;fontSize=18;" vertex="1" parent="1">
          <mxGeometry x="465" y="262" width="60" height="30" as="geometry" />
        </mxCell>
        <mxCell id="GhbO_Cz8v0FP8d1JMKL0-26" value="" style="endArrow=none;html=1;rounded=0;entryX=0.5;entryY=1;entryDx=0;entryDy=0;" edge="1" parent="1">
          <mxGeometry width="50" height="50" relative="1" as="geometry">
            <mxPoint x="665" y="280" as="sourcePoint" />
            <mxPoint x="665" y="230" as="targetPoint" />
          </mxGeometry>
        </mxCell>
        <mxCell id="GhbO_Cz8v0FP8d1JMKL0-27" value="J3" style="text;html=1;strokeColor=none;fillColor=none;align=center;verticalAlign=middle;whiteSpace=wrap;rounded=0;fontSize=18;" vertex="1" parent="1">
          <mxGeometry x="635" y="280" width="60" height="30" as="geometry" />
        </mxCell>
        <mxCell id="GhbO_Cz8v0FP8d1JMKL0-28" value="" style="endArrow=none;html=1;rounded=0;entryX=0.5;entryY=1;entryDx=0;entryDy=0;" edge="1" parent="1">
          <mxGeometry width="50" height="50" relative="1" as="geometry">
            <mxPoint x="835" y="280" as="sourcePoint" />
            <mxPoint x="835" y="230" as="targetPoint" />
          </mxGeometry>
        </mxCell>
        <mxCell id="GhbO_Cz8v0FP8d1JMKL0-29" value="J3" style="text;html=1;strokeColor=none;fillColor=none;align=center;verticalAlign=middle;whiteSpace=wrap;rounded=0;fontSize=18;" vertex="1" parent="1">
          <mxGeometry x="805" y="280" width="60" height="30" as="geometry" />
        </mxCell>
        <mxCell id="GhbO_Cz8v0FP8d1JMKL0-30" value="" style="endArrow=none;html=1;rounded=0;entryX=0;entryY=1;entryDx=0;entryDy=0;exitX=0.5;exitY=0;exitDx=0;exitDy=0;" edge="1" parent="1" source="GhbO_Cz8v0FP8d1JMKL0-31" target="GhbO_Cz8v0FP8d1JMKL0-4">
          <mxGeometry width="50" height="50" relative="1" as="geometry">
            <mxPoint x="130" y="410" as="sourcePoint" />
            <mxPoint x="200" y="380" as="targetPoint" />
          </mxGeometry>
        </mxCell>
        <mxCell id="GhbO_Cz8v0FP8d1JMKL0-31" value="1, 8" style="ellipse;whiteSpace=wrap;html=1;aspect=fixed;fontSize=18;" vertex="1" parent="1">
          <mxGeometry x="35" y="380" width="80" height="80" as="geometry" />
        </mxCell>
        <mxCell id="GhbO_Cz8v0FP8d1JMKL0-33" value="2, 7" style="ellipse;whiteSpace=wrap;html=1;aspect=fixed;fontSize=18;" vertex="1" parent="1">
          <mxGeometry x="180" y="380" width="80" height="80" as="geometry" />
        </mxCell>
        <mxCell id="GhbO_Cz8v0FP8d1JMKL0-34" value="4, 7" style="ellipse;whiteSpace=wrap;html=1;aspect=fixed;fontSize=18;" vertex="1" parent="1">
          <mxGeometry x="310" y="380" width="80" height="80" as="geometry" />
        </mxCell>
        <mxCell id="GhbO_Cz8v0FP8d1JMKL0-36" value="5, 11" style="ellipse;whiteSpace=wrap;html=1;aspect=fixed;fontSize=18;" vertex="1" parent="1">
          <mxGeometry x="450" y="380" width="80" height="80" as="geometry" />
        </mxCell>
        <mxCell id="GhbO_Cz8v0FP8d1JMKL0-37" value="6, 7" style="ellipse;whiteSpace=wrap;html=1;aspect=fixed;fontSize=18;" vertex="1" parent="1">
          <mxGeometry x="590" y="380" width="80" height="80" as="geometry" />
        </mxCell>
        <mxCell id="GhbO_Cz8v0FP8d1JMKL0-38" value="" style="endArrow=none;html=1;rounded=0;entryX=0.289;entryY=0.93;entryDx=0;entryDy=0;exitX=0.5;exitY=0;exitDx=0;exitDy=0;entryPerimeter=0;" edge="1" parent="1" source="GhbO_Cz8v0FP8d1JMKL0-33" target="GhbO_Cz8v0FP8d1JMKL0-4">
          <mxGeometry width="50" height="50" relative="1" as="geometry">
            <mxPoint x="85" y="390" as="sourcePoint" />
            <mxPoint x="307" y="228" as="targetPoint" />
          </mxGeometry>
        </mxCell>
        <mxCell id="GhbO_Cz8v0FP8d1JMKL0-39" value="" style="endArrow=none;html=1;rounded=0;entryX=0.642;entryY=1.033;entryDx=0;entryDy=0;exitX=0.5;exitY=0;exitDx=0;exitDy=0;entryPerimeter=0;" edge="1" parent="1" source="GhbO_Cz8v0FP8d1JMKL0-34" target="GhbO_Cz8v0FP8d1JMKL0-4">
          <mxGeometry width="50" height="50" relative="1" as="geometry">
            <mxPoint x="95" y="400" as="sourcePoint" />
            <mxPoint x="317" y="238" as="targetPoint" />
          </mxGeometry>
        </mxCell>
        <mxCell id="GhbO_Cz8v0FP8d1JMKL0-40" value="" style="endArrow=none;html=1;rounded=0;exitX=0.5;exitY=0;exitDx=0;exitDy=0;" edge="1" parent="1" source="GhbO_Cz8v0FP8d1JMKL0-36">
          <mxGeometry width="50" height="50" relative="1" as="geometry">
            <mxPoint x="105" y="410" as="sourcePoint" />
            <mxPoint x="350" y="220" as="targetPoint" />
          </mxGeometry>
        </mxCell>
        <mxCell id="GhbO_Cz8v0FP8d1JMKL0-41" value="" style="endArrow=none;html=1;rounded=0;entryX=0.971;entryY=0.857;entryDx=0;entryDy=0;exitX=0.5;exitY=0;exitDx=0;exitDy=0;entryPerimeter=0;" edge="1" parent="1" source="GhbO_Cz8v0FP8d1JMKL0-37" target="GhbO_Cz8v0FP8d1JMKL0-4">
          <mxGeometry width="50" height="50" relative="1" as="geometry">
            <mxPoint x="115" y="420" as="sourcePoint" />
            <mxPoint x="337" y="258" as="targetPoint" />
          </mxGeometry>
        </mxCell>
        <mxCell id="GhbO_Cz8v0FP8d1JMKL0-44" value="" style="endArrow=none;html=1;rounded=0;entryX=0;entryY=0.5;entryDx=0;entryDy=0;exitX=0.5;exitY=0;exitDx=0;exitDy=0;" edge="1" parent="1" source="GhbO_Cz8v0FP8d1JMKL0-71" target="GhbO_Cz8v0FP8d1JMKL0-33">
          <mxGeometry width="50" height="50" relative="1" as="geometry">
            <mxPoint x="100" y="530" as="sourcePoint" />
            <mxPoint x="220" y="460" as="targetPoint" />
          </mxGeometry>
        </mxCell>
        <mxCell id="GhbO_Cz8v0FP8d1JMKL0-46" value="" style="endArrow=none;html=1;rounded=0;entryX=0.26;entryY=0.923;entryDx=0;entryDy=0;exitX=0.5;exitY=0;exitDx=0;exitDy=0;entryPerimeter=0;" edge="1" parent="1" source="GhbO_Cz8v0FP8d1JMKL0-102" target="GhbO_Cz8v0FP8d1JMKL0-34">
          <mxGeometry width="50" height="50" relative="1" as="geometry">
            <mxPoint x="350" y="510" as="sourcePoint" />
            <mxPoint x="350" y="460" as="targetPoint" />
          </mxGeometry>
        </mxCell>
        <mxCell id="GhbO_Cz8v0FP8d1JMKL0-48" value="" style="endArrow=none;html=1;rounded=0;entryX=0.5;entryY=1;entryDx=0;entryDy=0;" edge="1" parent="1">
          <mxGeometry width="50" height="50" relative="1" as="geometry">
            <mxPoint x="490" y="510" as="sourcePoint" />
            <mxPoint x="490" y="460" as="targetPoint" />
          </mxGeometry>
        </mxCell>
        <mxCell id="GhbO_Cz8v0FP8d1JMKL0-70" value="" style="endArrow=none;html=1;rounded=0;entryX=0;entryY=0.5;entryDx=0;entryDy=0;" edge="1" parent="1" target="GhbO_Cz8v0FP8d1JMKL0-31">
          <mxGeometry width="50" height="50" relative="1" as="geometry">
            <mxPoint x="-20" y="420" as="sourcePoint" />
            <mxPoint x="45" y="430" as="targetPoint" />
          </mxGeometry>
        </mxCell>
        <mxCell id="GhbO_Cz8v0FP8d1JMKL0-71" value="1, 12" style="ellipse;whiteSpace=wrap;html=1;aspect=fixed;fontSize=18;" vertex="1" parent="1">
          <mxGeometry x="-110" y="680" width="80" height="80" as="geometry" />
        </mxCell>
        <mxCell id="GhbO_Cz8v0FP8d1JMKL0-72" value="" style="endArrow=none;html=1;rounded=0;entryX=0.5;entryY=1;entryDx=0;entryDy=0;" edge="1" parent="1">
          <mxGeometry width="50" height="50" relative="1" as="geometry">
            <mxPoint x="-70" y="810" as="sourcePoint" />
            <mxPoint x="-70" y="760" as="targetPoint" />
          </mxGeometry>
        </mxCell>
        <mxCell id="GhbO_Cz8v0FP8d1JMKL0-73" value="J6" style="text;html=1;strokeColor=none;fillColor=none;align=center;verticalAlign=middle;whiteSpace=wrap;rounded=0;fontSize=18;" vertex="1" parent="1">
          <mxGeometry x="-100" y="810" width="60" height="30" as="geometry" />
        </mxCell>
        <mxCell id="GhbO_Cz8v0FP8d1JMKL0-74" value="4, 10" style="ellipse;whiteSpace=wrap;html=1;aspect=fixed;fontSize=18;" vertex="1" parent="1">
          <mxGeometry x="-20" y="680" width="80" height="80" as="geometry" />
        </mxCell>
        <mxCell id="GhbO_Cz8v0FP8d1JMKL0-75" value="" style="endArrow=none;html=1;rounded=0;entryX=0.5;entryY=1;entryDx=0;entryDy=0;" edge="1" parent="1">
          <mxGeometry width="50" height="50" relative="1" as="geometry">
            <mxPoint x="20" y="810" as="sourcePoint" />
            <mxPoint x="20" y="760" as="targetPoint" />
          </mxGeometry>
        </mxCell>
        <mxCell id="GhbO_Cz8v0FP8d1JMKL0-76" value="J5" style="text;html=1;strokeColor=none;fillColor=none;align=center;verticalAlign=middle;whiteSpace=wrap;rounded=0;fontSize=18;" vertex="1" parent="1">
          <mxGeometry x="-10" y="810" width="60" height="30" as="geometry" />
        </mxCell>
        <mxCell id="GhbO_Cz8v0FP8d1JMKL0-80" value="5, 13" style="ellipse;whiteSpace=wrap;html=1;aspect=fixed;fontSize=18;" vertex="1" parent="1">
          <mxGeometry x="70" y="680" width="80" height="80" as="geometry" />
        </mxCell>
        <mxCell id="GhbO_Cz8v0FP8d1JMKL0-81" value="" style="endArrow=none;html=1;rounded=0;entryX=0.5;entryY=1;entryDx=0;entryDy=0;" edge="1" parent="1">
          <mxGeometry width="50" height="50" relative="1" as="geometry">
            <mxPoint x="110" y="810" as="sourcePoint" />
            <mxPoint x="110" y="760" as="targetPoint" />
          </mxGeometry>
        </mxCell>
        <mxCell id="GhbO_Cz8v0FP8d1JMKL0-83" value="6, 8" style="ellipse;whiteSpace=wrap;html=1;aspect=fixed;fontSize=18;" vertex="1" parent="1">
          <mxGeometry x="160" y="680" width="80" height="80" as="geometry" />
        </mxCell>
        <mxCell id="GhbO_Cz8v0FP8d1JMKL0-84" value="" style="endArrow=none;html=1;rounded=0;entryX=0.282;entryY=0.923;entryDx=0;entryDy=0;exitX=0.5;exitY=0;exitDx=0;exitDy=0;entryPerimeter=0;" edge="1" parent="1" source="GhbO_Cz8v0FP8d1JMKL0-91" target="GhbO_Cz8v0FP8d1JMKL0-83">
          <mxGeometry width="50" height="50" relative="1" as="geometry">
            <mxPoint x="200" y="810" as="sourcePoint" />
            <mxPoint x="200" y="760" as="targetPoint" />
          </mxGeometry>
        </mxCell>
        <mxCell id="GhbO_Cz8v0FP8d1JMKL0-86" value="" style="endArrow=none;html=1;rounded=0;entryX=0;entryY=1;entryDx=0;entryDy=0;exitX=0.5;exitY=0;exitDx=0;exitDy=0;" edge="1" parent="1" source="GhbO_Cz8v0FP8d1JMKL0-74" target="GhbO_Cz8v0FP8d1JMKL0-33">
          <mxGeometry width="50" height="50" relative="1" as="geometry">
            <mxPoint x="-60" y="690" as="sourcePoint" />
            <mxPoint x="190" y="430" as="targetPoint" />
          </mxGeometry>
        </mxCell>
        <mxCell id="GhbO_Cz8v0FP8d1JMKL0-87" value="" style="endArrow=none;html=1;rounded=0;entryX=0.5;entryY=1;entryDx=0;entryDy=0;exitX=0.5;exitY=0;exitDx=0;exitDy=0;" edge="1" parent="1" source="GhbO_Cz8v0FP8d1JMKL0-80" target="GhbO_Cz8v0FP8d1JMKL0-33">
          <mxGeometry width="50" height="50" relative="1" as="geometry">
            <mxPoint x="30" y="690" as="sourcePoint" />
            <mxPoint x="202" y="458" as="targetPoint" />
          </mxGeometry>
        </mxCell>
        <mxCell id="GhbO_Cz8v0FP8d1JMKL0-88" value="J2" style="text;html=1;strokeColor=none;fillColor=none;align=center;verticalAlign=middle;whiteSpace=wrap;rounded=0;fontSize=18;" vertex="1" parent="1">
          <mxGeometry x="-80" y="405" width="60" height="30" as="geometry" />
        </mxCell>
        <mxCell id="GhbO_Cz8v0FP8d1JMKL0-89" value="J1" style="text;html=1;strokeColor=none;fillColor=none;align=center;verticalAlign=middle;whiteSpace=wrap;rounded=0;fontSize=18;" vertex="1" parent="1">
          <mxGeometry x="80" y="810" width="60" height="30" as="geometry" />
        </mxCell>
        <mxCell id="GhbO_Cz8v0FP8d1JMKL0-90" value="" style="endArrow=none;html=1;rounded=0;entryX=0.75;entryY=1;entryDx=0;entryDy=0;exitX=0.5;exitY=0;exitDx=0;exitDy=0;entryPerimeter=0;" edge="1" parent="1" source="GhbO_Cz8v0FP8d1JMKL0-83" target="GhbO_Cz8v0FP8d1JMKL0-33">
          <mxGeometry width="50" height="50" relative="1" as="geometry">
            <mxPoint x="120" y="690" as="sourcePoint" />
            <mxPoint x="230" y="470" as="targetPoint" />
          </mxGeometry>
        </mxCell>
        <mxCell id="GhbO_Cz8v0FP8d1JMKL0-91" value="1, 13" style="ellipse;whiteSpace=wrap;html=1;aspect=fixed;fontSize=18;" vertex="1" parent="1">
          <mxGeometry x="25" y="900" width="80" height="80" as="geometry" />
        </mxCell>
        <mxCell id="GhbO_Cz8v0FP8d1JMKL0-92" value="" style="endArrow=none;html=1;rounded=0;entryX=0.5;entryY=1;entryDx=0;entryDy=0;" edge="1" parent="1">
          <mxGeometry width="50" height="50" relative="1" as="geometry">
            <mxPoint x="65" y="1030" as="sourcePoint" />
            <mxPoint x="65" y="980" as="targetPoint" />
          </mxGeometry>
        </mxCell>
        <mxCell id="GhbO_Cz8v0FP8d1JMKL0-93" value="J4" style="text;html=1;strokeColor=none;fillColor=none;align=center;verticalAlign=middle;whiteSpace=wrap;rounded=0;fontSize=18;" vertex="1" parent="1">
          <mxGeometry x="35" y="1030" width="60" height="30" as="geometry" />
        </mxCell>
        <mxCell id="GhbO_Cz8v0FP8d1JMKL0-94" value="4, 11" style="ellipse;whiteSpace=wrap;html=1;aspect=fixed;fontSize=18;" vertex="1" parent="1">
          <mxGeometry x="115" y="900" width="80" height="80" as="geometry" />
        </mxCell>
        <mxCell id="GhbO_Cz8v0FP8d1JMKL0-95" value="" style="endArrow=none;html=1;rounded=0;entryX=0.5;entryY=1;entryDx=0;entryDy=0;" edge="1" parent="1">
          <mxGeometry width="50" height="50" relative="1" as="geometry">
            <mxPoint x="155" y="1030" as="sourcePoint" />
            <mxPoint x="155" y="980" as="targetPoint" />
          </mxGeometry>
        </mxCell>
        <mxCell id="GhbO_Cz8v0FP8d1JMKL0-96" value="5, 14" style="ellipse;whiteSpace=wrap;html=1;aspect=fixed;fontSize=18;" vertex="1" parent="1">
          <mxGeometry x="205" y="900" width="80" height="80" as="geometry" />
        </mxCell>
        <mxCell id="GhbO_Cz8v0FP8d1JMKL0-97" value="" style="endArrow=none;html=1;rounded=0;entryX=0.5;entryY=1;entryDx=0;entryDy=0;" edge="1" parent="1">
          <mxGeometry width="50" height="50" relative="1" as="geometry">
            <mxPoint x="245" y="1030" as="sourcePoint" />
            <mxPoint x="245" y="980" as="targetPoint" />
          </mxGeometry>
        </mxCell>
        <mxCell id="GhbO_Cz8v0FP8d1JMKL0-98" value="J1" style="text;html=1;strokeColor=none;fillColor=none;align=center;verticalAlign=middle;whiteSpace=wrap;rounded=0;fontSize=18;" vertex="1" parent="1">
          <mxGeometry x="215" y="1030" width="60" height="30" as="geometry" />
        </mxCell>
        <mxCell id="GhbO_Cz8v0FP8d1JMKL0-99" value="J1" style="text;html=1;strokeColor=none;fillColor=none;align=center;verticalAlign=middle;whiteSpace=wrap;rounded=0;fontSize=18;" vertex="1" parent="1">
          <mxGeometry x="125" y="1030" width="60" height="30" as="geometry" />
        </mxCell>
        <mxCell id="GhbO_Cz8v0FP8d1JMKL0-100" value="" style="endArrow=none;html=1;rounded=0;entryX=0.5;entryY=1;entryDx=0;entryDy=0;exitX=0.5;exitY=0;exitDx=0;exitDy=0;" edge="1" parent="1" source="GhbO_Cz8v0FP8d1JMKL0-94" target="GhbO_Cz8v0FP8d1JMKL0-83">
          <mxGeometry width="50" height="50" relative="1" as="geometry">
            <mxPoint x="75" y="910" as="sourcePoint" />
            <mxPoint x="210" y="770" as="targetPoint" />
          </mxGeometry>
        </mxCell>
        <mxCell id="GhbO_Cz8v0FP8d1JMKL0-101" value="" style="endArrow=none;html=1;rounded=0;entryX=1;entryY=1;entryDx=0;entryDy=0;exitX=0.5;exitY=0;exitDx=0;exitDy=0;" edge="1" parent="1" source="GhbO_Cz8v0FP8d1JMKL0-96" target="GhbO_Cz8v0FP8d1JMKL0-83">
          <mxGeometry width="50" height="50" relative="1" as="geometry">
            <mxPoint x="85" y="920" as="sourcePoint" />
            <mxPoint x="220" y="780" as="targetPoint" />
          </mxGeometry>
        </mxCell>
        <mxCell id="GhbO_Cz8v0FP8d1JMKL0-102" value="1, 12" style="ellipse;whiteSpace=wrap;html=1;aspect=fixed;fontSize=18;" vertex="1" parent="1">
          <mxGeometry x="270" y="680" width="80" height="80" as="geometry" />
        </mxCell>
        <mxCell id="GhbO_Cz8v0FP8d1JMKL0-103" value="" style="endArrow=none;html=1;rounded=0;entryX=0.5;entryY=1;entryDx=0;entryDy=0;" edge="1" parent="1">
          <mxGeometry width="50" height="50" relative="1" as="geometry">
            <mxPoint x="310" y="810" as="sourcePoint" />
            <mxPoint x="310" y="760" as="targetPoint" />
          </mxGeometry>
        </mxCell>
        <mxCell id="GhbO_Cz8v0FP8d1JMKL0-104" value="J6" style="text;html=1;strokeColor=none;fillColor=none;align=center;verticalAlign=middle;whiteSpace=wrap;rounded=0;fontSize=18;" vertex="1" parent="1">
          <mxGeometry x="280" y="810" width="60" height="30" as="geometry" />
        </mxCell>
        <mxCell id="GhbO_Cz8v0FP8d1JMKL0-105" value="2, 10" style="ellipse;whiteSpace=wrap;html=1;aspect=fixed;fontSize=18;" vertex="1" parent="1">
          <mxGeometry x="360" y="680" width="80" height="80" as="geometry" />
        </mxCell>
        <mxCell id="GhbO_Cz8v0FP8d1JMKL0-106" value="" style="endArrow=none;html=1;rounded=0;entryX=0.5;entryY=1;entryDx=0;entryDy=0;" edge="1" parent="1">
          <mxGeometry width="50" height="50" relative="1" as="geometry">
            <mxPoint x="400" y="810" as="sourcePoint" />
            <mxPoint x="400" y="760" as="targetPoint" />
          </mxGeometry>
        </mxCell>
        <mxCell id="GhbO_Cz8v0FP8d1JMKL0-107" value="J5" style="text;html=1;strokeColor=none;fillColor=none;align=center;verticalAlign=middle;whiteSpace=wrap;rounded=0;fontSize=18;" vertex="1" parent="1">
          <mxGeometry x="370" y="810" width="60" height="30" as="geometry" />
        </mxCell>
        <mxCell id="GhbO_Cz8v0FP8d1JMKL0-108" value="5, 13" style="ellipse;whiteSpace=wrap;html=1;aspect=fixed;fontSize=18;" vertex="1" parent="1">
          <mxGeometry x="450" y="680" width="80" height="80" as="geometry" />
        </mxCell>
        <mxCell id="GhbO_Cz8v0FP8d1JMKL0-109" value="" style="endArrow=none;html=1;rounded=0;entryX=0.5;entryY=1;entryDx=0;entryDy=0;" edge="1" parent="1">
          <mxGeometry width="50" height="50" relative="1" as="geometry">
            <mxPoint x="490" y="810" as="sourcePoint" />
            <mxPoint x="490" y="760" as="targetPoint" />
          </mxGeometry>
        </mxCell>
        <mxCell id="GhbO_Cz8v0FP8d1JMKL0-110" value="6, 8" style="ellipse;whiteSpace=wrap;html=1;aspect=fixed;fontSize=18;" vertex="1" parent="1">
          <mxGeometry x="540" y="680" width="80" height="80" as="geometry" />
        </mxCell>
        <mxCell id="GhbO_Cz8v0FP8d1JMKL0-111" value="J1" style="text;html=1;strokeColor=none;fillColor=none;align=center;verticalAlign=middle;whiteSpace=wrap;rounded=0;fontSize=18;" vertex="1" parent="1">
          <mxGeometry x="460" y="810" width="60" height="30" as="geometry" />
        </mxCell>
        <mxCell id="GhbO_Cz8v0FP8d1JMKL0-112" value="" style="endArrow=none;html=1;rounded=0;entryX=0.5;entryY=1;entryDx=0;entryDy=0;exitX=0.5;exitY=0;exitDx=0;exitDy=0;" edge="1" parent="1" source="GhbO_Cz8v0FP8d1JMKL0-105" target="GhbO_Cz8v0FP8d1JMKL0-34">
          <mxGeometry width="50" height="50" relative="1" as="geometry">
            <mxPoint x="320" y="690" as="sourcePoint" />
            <mxPoint x="341" y="464" as="targetPoint" />
          </mxGeometry>
        </mxCell>
        <mxCell id="GhbO_Cz8v0FP8d1JMKL0-113" value="" style="endArrow=none;html=1;rounded=0;entryX=0.701;entryY=0.996;entryDx=0;entryDy=0;exitX=0.5;exitY=0;exitDx=0;exitDy=0;entryPerimeter=0;" edge="1" parent="1" source="GhbO_Cz8v0FP8d1JMKL0-108" target="GhbO_Cz8v0FP8d1JMKL0-34">
          <mxGeometry width="50" height="50" relative="1" as="geometry">
            <mxPoint x="330" y="700" as="sourcePoint" />
            <mxPoint x="351" y="474" as="targetPoint" />
          </mxGeometry>
        </mxCell>
        <mxCell id="GhbO_Cz8v0FP8d1JMKL0-114" value="" style="endArrow=none;html=1;rounded=0;entryX=0.951;entryY=0.717;entryDx=0;entryDy=0;exitX=0.5;exitY=0;exitDx=0;exitDy=0;entryPerimeter=0;" edge="1" parent="1" source="GhbO_Cz8v0FP8d1JMKL0-110" target="GhbO_Cz8v0FP8d1JMKL0-34">
          <mxGeometry width="50" height="50" relative="1" as="geometry">
            <mxPoint x="340" y="710" as="sourcePoint" />
            <mxPoint x="361" y="484" as="targetPoint" />
          </mxGeometry>
        </mxCell>
        <mxCell id="GhbO_Cz8v0FP8d1JMKL0-115" value="" style="endArrow=none;html=1;rounded=0;entryX=0.5;entryY=1;entryDx=0;entryDy=0;" edge="1" parent="1">
          <mxGeometry width="50" height="50" relative="1" as="geometry">
            <mxPoint x="582" y="810" as="sourcePoint" />
            <mxPoint x="582" y="760" as="targetPoint" />
          </mxGeometry>
        </mxCell>
        <mxCell id="GhbO_Cz8v0FP8d1JMKL0-116" value="J2" style="text;html=1;strokeColor=none;fillColor=none;align=center;verticalAlign=middle;whiteSpace=wrap;rounded=0;fontSize=18;" vertex="1" parent="1">
          <mxGeometry x="552" y="810" width="60" height="30" as="geometry" />
        </mxCell>
        <mxCell id="GhbO_Cz8v0FP8d1JMKL0-117" value="J2" style="text;html=1;strokeColor=none;fillColor=none;align=center;verticalAlign=middle;whiteSpace=wrap;rounded=0;fontSize=18;" vertex="1" parent="1">
          <mxGeometry x="460" y="510" width="60" height="30" as="geometry" />
        </mxCell>
        <mxCell id="GhbO_Cz8v0FP8d1JMKL0-119" value="1, 12" style="ellipse;whiteSpace=wrap;html=1;aspect=fixed;fontSize=18;" vertex="1" parent="1">
          <mxGeometry x="680" y="680" width="80" height="80" as="geometry" />
        </mxCell>
        <mxCell id="GhbO_Cz8v0FP8d1JMKL0-120" value="" style="endArrow=none;html=1;rounded=0;entryX=0.5;entryY=1;entryDx=0;entryDy=0;" edge="1" parent="1">
          <mxGeometry width="50" height="50" relative="1" as="geometry">
            <mxPoint x="720" y="810" as="sourcePoint" />
            <mxPoint x="720" y="760" as="targetPoint" />
          </mxGeometry>
        </mxCell>
        <mxCell id="GhbO_Cz8v0FP8d1JMKL0-121" value="J5" style="text;html=1;strokeColor=none;fillColor=none;align=center;verticalAlign=middle;whiteSpace=wrap;rounded=0;fontSize=18;" vertex="1" parent="1">
          <mxGeometry x="690" y="810" width="60" height="30" as="geometry" />
        </mxCell>
        <mxCell id="GhbO_Cz8v0FP8d1JMKL0-122" value="2, 10" style="ellipse;whiteSpace=wrap;html=1;aspect=fixed;fontSize=18;" vertex="1" parent="1">
          <mxGeometry x="770" y="680" width="80" height="80" as="geometry" />
        </mxCell>
        <mxCell id="GhbO_Cz8v0FP8d1JMKL0-123" value="" style="endArrow=none;html=1;rounded=0;entryX=0.5;entryY=1;entryDx=0;entryDy=0;" edge="1" parent="1">
          <mxGeometry width="50" height="50" relative="1" as="geometry">
            <mxPoint x="810" y="810" as="sourcePoint" />
            <mxPoint x="810" y="760" as="targetPoint" />
          </mxGeometry>
        </mxCell>
        <mxCell id="GhbO_Cz8v0FP8d1JMKL0-124" value="J5" style="text;html=1;strokeColor=none;fillColor=none;align=center;verticalAlign=middle;whiteSpace=wrap;rounded=0;fontSize=18;" vertex="1" parent="1">
          <mxGeometry x="780" y="810" width="60" height="30" as="geometry" />
        </mxCell>
        <mxCell id="GhbO_Cz8v0FP8d1JMKL0-125" value="4, 10" style="ellipse;whiteSpace=wrap;html=1;aspect=fixed;fontSize=18;" vertex="1" parent="1">
          <mxGeometry x="860" y="680" width="80" height="80" as="geometry" />
        </mxCell>
        <mxCell id="GhbO_Cz8v0FP8d1JMKL0-126" value="" style="endArrow=none;html=1;rounded=0;entryX=0.5;entryY=1;entryDx=0;entryDy=0;" edge="1" parent="1">
          <mxGeometry width="50" height="50" relative="1" as="geometry">
            <mxPoint x="900" y="810" as="sourcePoint" />
            <mxPoint x="900" y="760" as="targetPoint" />
          </mxGeometry>
        </mxCell>
        <mxCell id="GhbO_Cz8v0FP8d1JMKL0-127" value="5, 13" style="ellipse;whiteSpace=wrap;html=1;aspect=fixed;fontSize=18;" vertex="1" parent="1">
          <mxGeometry x="950" y="680" width="80" height="80" as="geometry" />
        </mxCell>
        <mxCell id="GhbO_Cz8v0FP8d1JMKL0-128" value="J2" style="text;html=1;strokeColor=none;fillColor=none;align=center;verticalAlign=middle;whiteSpace=wrap;rounded=0;fontSize=18;" vertex="1" parent="1">
          <mxGeometry x="870" y="810" width="60" height="30" as="geometry" />
        </mxCell>
        <mxCell id="GhbO_Cz8v0FP8d1JMKL0-129" value="" style="endArrow=none;html=1;rounded=0;entryX=0.5;entryY=1;entryDx=0;entryDy=0;" edge="1" parent="1">
          <mxGeometry width="50" height="50" relative="1" as="geometry">
            <mxPoint x="992" y="810" as="sourcePoint" />
            <mxPoint x="992" y="760" as="targetPoint" />
          </mxGeometry>
        </mxCell>
        <mxCell id="GhbO_Cz8v0FP8d1JMKL0-130" value="J1" style="text;html=1;strokeColor=none;fillColor=none;align=center;verticalAlign=middle;whiteSpace=wrap;rounded=0;fontSize=18;" vertex="1" parent="1">
          <mxGeometry x="962" y="810" width="60" height="30" as="geometry" />
        </mxCell>
        <mxCell id="GhbO_Cz8v0FP8d1JMKL0-131" value="" style="endArrow=none;html=1;rounded=0;entryX=0.5;entryY=1;entryDx=0;entryDy=0;exitX=0.5;exitY=0;exitDx=0;exitDy=0;" edge="1" parent="1" source="GhbO_Cz8v0FP8d1JMKL0-119" target="GhbO_Cz8v0FP8d1JMKL0-37">
          <mxGeometry width="50" height="50" relative="1" as="geometry">
            <mxPoint x="580" y="550" as="sourcePoint" />
            <mxPoint x="630" y="500" as="targetPoint" />
          </mxGeometry>
        </mxCell>
        <mxCell id="GhbO_Cz8v0FP8d1JMKL0-132" value="" style="endArrow=none;html=1;rounded=0;entryX=1;entryY=1;entryDx=0;entryDy=0;exitX=0.5;exitY=0;exitDx=0;exitDy=0;" edge="1" parent="1" source="GhbO_Cz8v0FP8d1JMKL0-122" target="GhbO_Cz8v0FP8d1JMKL0-37">
          <mxGeometry width="50" height="50" relative="1" as="geometry">
            <mxPoint x="580" y="550" as="sourcePoint" />
            <mxPoint x="630" y="500" as="targetPoint" />
          </mxGeometry>
        </mxCell>
        <mxCell id="GhbO_Cz8v0FP8d1JMKL0-133" value="" style="endArrow=none;html=1;rounded=0;entryX=0.995;entryY=0.732;entryDx=0;entryDy=0;entryPerimeter=0;exitX=0.5;exitY=0;exitDx=0;exitDy=0;" edge="1" parent="1" source="GhbO_Cz8v0FP8d1JMKL0-125" target="GhbO_Cz8v0FP8d1JMKL0-37">
          <mxGeometry width="50" height="50" relative="1" as="geometry">
            <mxPoint x="670" y="550" as="sourcePoint" />
            <mxPoint x="720" y="500" as="targetPoint" />
          </mxGeometry>
        </mxCell>
        <mxCell id="GhbO_Cz8v0FP8d1JMKL0-134" value="" style="endArrow=none;html=1;rounded=0;entryX=1;entryY=0.5;entryDx=0;entryDy=0;exitX=0.5;exitY=0;exitDx=0;exitDy=0;" edge="1" parent="1" source="GhbO_Cz8v0FP8d1JMKL0-127" target="GhbO_Cz8v0FP8d1JMKL0-37">
          <mxGeometry width="50" height="50" relative="1" as="geometry">
            <mxPoint x="670" y="550" as="sourcePoint" />
            <mxPoint x="720" y="500" as="targetPoint" />
          </mxGeometry>
        </mxCell>
      </root>
    </mxGraphModel>
  </diagram>
</mxfile>
